<svg width="81" height="64" viewBox="0 0 81 64" fill="none" xmlns="http://www.w3.org/2000/svg">
<path fill-rule="evenodd" clip-rule="evenodd" d="M27.6302 21.2459C25.5005 22.4264 24.7494 25.0927 25.9263 27.2158L36.5372 46.3584C37.7152 48.4835 40.385 49.251 42.5029 48.077L76.9965 28.9569C79.1262 27.7764 79.8772 25.1101 78.7004 22.987L68.0895 3.84441C66.9115 1.71939 64.2417 0.951843 62.1238 2.1258L27.6302 21.2459ZM39.0926 44.942L28.4817 25.7994C28.0833 25.0808 28.3349 24.1958 29.0466 23.8013L63.5403 4.68114C64.2463 4.28978 65.1382 4.54655 65.5341 5.26086L76.145 24.4035C76.5433 25.122 76.2918 26.0071 75.5801 26.4016L41.0864 45.5217C40.3804 45.9131 39.4885 45.6563 39.0926 44.942Z" fill="#D72130"/>
<path d="M26.3491 23.8387L26.0089 26.7405L54.191 30.0447L55.6962 29.1867L66.6396 4.54333L63.9693 3.35757L53.4627 27.0176L26.3491 23.8387Z" fill="#D72130"/>
<path d="M61.9547 24.6942L77.1456 25.9917L77.3942 23.0807L62.2034 21.7831L61.9547 24.6942Z" fill="#D72130"/>
<path d="M44.4836 32.2957L38.3456 45.9251L41.0095 47.1248L47.1475 33.4954L44.4836 32.2957Z" fill="#D72130"/>
<rect x="3.54102" y="42.95" width="21.3632" height="2.92166" transform="rotate(-29 3.54102 42.95)" fill="#D72130"/>
<path fill-rule="evenodd" clip-rule="evenodd" d="M11.2344 47.0366L25.7669 38.9811L27.1834 41.5364L12.6508 49.592L11.2344 47.0366Z" fill="#D72130"/>
<path fill-rule="evenodd" clip-rule="evenodd" d="M18.9277 51.1235L29.3081 45.3696L30.7246 47.9249L20.3442 53.6789L18.9277 51.1235Z" fill="#D72130"/>
</svg>
