<svg width="34" height="34" viewBox="0 0 34 34" fill="none" xmlns="http://www.w3.org/2000/svg">
<path fill-rule="evenodd" clip-rule="evenodd" d="M17 33C25.8366 33 33 25.8366 33 17C33 8.16344 25.8366 1 17 1C8.16344 1 1 8.16344 1 17C1 25.8366 8.16344 33 17 33Z" stroke="white"/>
<path d="M21 14.9962H18.2755V13.3247C18.2755 12.6969 18.7202 12.5506 19.0335 12.5506C19.346 12.5506 20.9562 12.5506 20.9562 12.5506V9.79092L18.3083 9.78125C15.3689 9.78125 14.6999 11.8395 14.6999 13.1567V14.9962H13V17.8399H14.6999C14.6999 21.4893 14.6999 25.8865 14.6999 25.8865H18.2755C18.2755 25.8865 18.2755 21.446 18.2755 17.8399H20.6882L21 14.9962Z" fill="white"/>
</svg>
