<svg width="34" height="34" viewBox="0 0 34 34" fill="none" xmlns="http://www.w3.org/2000/svg">
<path fill-rule="evenodd" clip-rule="evenodd" d="M16.7988 33C25.6354 33 32.7988 25.8366 32.7988 17C32.7988 8.16344 25.6354 1 16.7988 1C7.96227 1 0.798828 8.16344 0.798828 17C0.798828 25.8366 7.96227 33 16.7988 33Z" stroke="white"/>
<path d="M25.448 16.4646H22.911V14.2103C22.911 14.0383 22.7539 13.8984 22.5608 13.8984H21.8384C21.6438 13.8984 21.4868 14.0383 21.4868 14.2103V16.4646H18.9498C18.7566 16.4646 18.5989 16.6048 18.5989 16.7771V17.4192C18.5989 17.5915 18.7566 17.7311 18.9498 17.7311H21.4868V19.9866C21.4868 20.1589 21.6438 20.2984 21.8384 20.2984H22.5608C22.7539 20.2984 22.911 20.1589 22.911 19.9866V17.7308H25.448C25.6412 17.7308 25.7989 17.5912 25.7989 17.4189V16.7768C25.7989 16.6045 25.6412 16.4646 25.448 16.4646Z" fill="white"/>
<path fill-rule="evenodd" clip-rule="evenodd" d="M16.7838 18.6644C16.3149 18.3043 15.8887 17.7763 15.8813 17.6141C15.8813 17.3187 15.9056 17.1775 16.5167 16.6613C17.3067 15.9908 17.7417 15.1091 17.7417 14.1776C17.7417 13.3329 17.5037 12.5825 17.0986 12.0555H17.4129C17.4779 12.0555 17.5417 12.0336 17.5936 11.9924L18.4706 11.3035C18.5795 11.2189 18.6252 11.068 18.5836 10.9299C18.5418 10.7922 18.4243 10.6982 18.2904 10.6982H14.3684C13.9393 10.6982 13.5033 10.7803 13.0754 10.9399C11.6462 11.4744 10.6467 12.7949 10.6467 14.1505C10.6467 16.0712 12.0189 17.5269 13.8532 17.5726C13.8173 17.7248 13.7992 17.8748 13.7992 18.0218C13.7992 18.3178 13.8684 18.5981 14.0108 18.869H13.9604C12.2118 18.869 10.6336 19.7993 10.0345 21.1835C9.87836 21.5436 9.79883 21.9075 9.79883 22.267C9.79883 22.6164 9.88163 22.9527 10.044 23.2686C10.4205 23.9991 11.2292 24.5657 12.3222 24.865C12.8864 25.0194 13.4927 25.0982 14.1221 25.0982C14.6877 25.0982 15.2269 25.0191 15.7255 24.8627C17.28 24.3733 18.2851 23.1325 18.2851 21.7003C18.2848 20.326 17.8773 19.5032 16.7838 18.6644ZM11.8305 21.8104C11.8305 20.8106 13.0018 19.9338 14.3369 19.9338H14.3729C14.6634 19.9376 14.9468 19.984 15.2139 20.0728C15.2994 20.1367 15.382 20.1978 15.4616 20.2566L15.4789 20.2694L15.4808 20.2708C16.0982 20.7269 16.5061 21.0283 16.6197 21.5118C16.6464 21.6337 16.6597 21.7557 16.6597 21.8738C16.6597 23.1187 15.8036 23.7497 14.1141 23.7497C12.8335 23.7497 11.8305 22.8983 11.8305 21.8104ZM13.8342 11.9692C13.5274 11.9692 13.2541 12.1057 13.0454 12.3641C12.7226 12.7634 12.586 13.3957 12.6712 14.0991C12.8229 15.3572 13.6701 16.4445 14.5192 16.4728H14.5331H14.5337C14.853 16.4728 15.1225 16.3364 15.3317 16.0773C15.6587 15.6732 15.8036 15.01 15.7178 14.3047C15.5653 13.0449 14.7358 11.9976 13.869 11.9699L13.8342 11.9692Z" fill="white"/>
</svg>
