<svg width="11" height="16" viewBox="0 0 11 16" fill="none" xmlns="http://www.w3.org/2000/svg">
<path fill-rule="evenodd" clip-rule="evenodd" d="M7.98494 8.96614C7.51606 8.60608 7.0899 8.07805 7.08248 7.91587C7.08248 7.62049 7.10682 7.47923 7.71785 6.9631C8.50784 6.29253 8.9429 5.41087 8.9429 4.47934C8.9429 3.63468 8.70489 2.88431 8.29981 2.35724H8.61408C8.67907 2.35724 8.74288 2.33536 8.79481 2.29417L9.67175 1.60526C9.78066 1.52063 9.82637 1.36972 9.78482 1.23168C9.74298 1.09396 9.62546 1 9.49162 1H5.56958C5.14046 1 4.70451 1.08205 4.27658 1.24165C2.84736 1.77612 1.84786 3.09668 1.84786 4.45231C1.84786 6.37297 3.22009 7.82867 5.05439 7.87437C5.01849 8.02657 5.00038 8.17651 5.00038 8.32356C5.00038 8.61959 5.06953 8.89986 5.21198 9.17079H5.16153C3.41299 9.17079 1.8348 10.101 1.23563 11.4853C1.07953 11.8454 1 12.2093 1 12.5687C1 12.9182 1.0828 13.2544 1.24513 13.5704C1.62172 14.3008 2.4304 14.8675 3.52339 15.1667C4.08754 15.3212 4.69383 15.4 5.32326 15.4C5.8889 15.4 6.42812 15.3208 6.92668 15.1645C8.48113 14.675 9.48627 13.4343 9.48627 12.0021C9.48598 10.6278 9.07852 9.80501 7.98494 8.96614ZM3.03034 12.1119C3.03034 11.1122 4.20167 10.2354 5.53681 10.2354H5.57272C5.86325 10.2392 6.14666 10.2855 6.41375 10.3744C6.49917 10.4382 6.58176 10.4993 6.66128 10.558L6.67876 10.571L6.68065 10.5724C7.29805 11.0285 7.70598 11.3299 7.81952 11.8133C7.84623 11.9353 7.85959 12.0572 7.85959 12.1753C7.85959 13.4203 7.00342 14.0513 5.31394 14.0513C4.03341 14.0513 3.03034 13.1999 3.03034 12.1119ZM5.03557 2.271C4.72871 2.271 4.45539 2.40743 4.24677 2.66581C3.92389 3.06513 3.78737 3.69742 3.87255 4.40081C4.02419 5.65895 4.87146 6.74622 5.7205 6.77454H5.73445H5.73504C6.05436 6.77454 6.32382 6.6381 6.53304 6.37908C6.86007 5.97493 7.0049 5.31175 6.91913 4.60643C6.76659 3.34668 5.93714 2.29931 5.07029 2.27164L5.03557 2.271Z" fill="black"/>
<path d="M7.08248 7.91587H6.83222L6.83274 7.9273L7.08248 7.91587ZM7.98494 8.96614L7.83268 9.16443L7.83278 9.16451L7.98494 8.96614ZM7.71785 6.9631L7.87918 7.15409L7.87964 7.1537L7.71785 6.9631ZM8.29981 2.35724V2.10724H7.79236L8.10159 2.50959L8.29981 2.35724ZM8.79481 2.29417L8.64037 2.09758L8.63947 2.09829L8.79481 2.29417ZM9.67175 1.60526L9.51836 1.40784L9.51731 1.40866L9.67175 1.60526ZM9.78482 1.23168L10.0242 1.15963L10.024 1.159L9.78482 1.23168ZM4.27658 1.24165L4.18921 1.00741L4.18901 1.00749L4.27658 1.24165ZM5.05439 7.87437L5.29771 7.93177L5.36841 7.63211L5.06062 7.62444L5.05439 7.87437ZM5.21198 9.17079V9.42079H5.62587L5.43326 9.05445L5.21198 9.17079ZM1.23563 11.4853L1.465 11.5847L1.46506 11.5846L1.23563 11.4853ZM1.24513 13.5704L1.02276 13.6846L1.02292 13.685L1.24513 13.5704ZM3.52339 15.1667L3.45737 15.4078L3.45737 15.4078L3.52339 15.1667ZM6.92668 15.1645L7.0015 15.403L7.00176 15.4029L6.92668 15.1645ZM9.48627 12.0021H9.73627V12.002L9.48627 12.0021ZM5.57272 10.2354L5.57604 9.98535H5.57272V10.2354ZM6.41375 10.3744L6.56342 10.1741L6.53102 10.1499L6.49263 10.1371L6.41375 10.3744ZM6.66128 10.558L6.80989 10.357L6.80989 10.357L6.66128 10.558ZM6.67876 10.571L6.53015 10.772L6.53022 10.772L6.67876 10.571ZM6.68065 10.5724L6.8292 10.3713L6.82919 10.3713L6.68065 10.5724ZM7.81952 11.8133L8.06376 11.7598L8.0629 11.7562L7.81952 11.8133ZM4.24677 2.66581L4.44117 2.823L4.44128 2.82286L4.24677 2.66581ZM5.03557 2.271L5.0402 2.021H5.03557V2.271ZM3.87255 4.40081L4.12075 4.3709L4.12073 4.37076L3.87255 4.40081ZM5.7205 6.77454L5.71216 7.02454H5.7205V6.77454ZM6.53304 6.37908L6.3387 6.22182L6.33856 6.22199L6.53304 6.37908ZM6.91913 4.60643L6.67094 4.63648L6.67096 4.6366L6.91913 4.60643ZM5.07029 2.27164L5.07827 2.02174L5.07492 2.02168L5.07029 2.27164ZM6.83274 7.9273C6.83571 7.99219 6.85686 8.05084 6.87475 8.09215C6.89439 8.1375 6.92 8.18401 6.94821 8.2295C7.00478 8.32073 7.08131 8.42314 7.16941 8.5278C7.34566 8.73718 7.58227 8.97213 7.83268 9.16443L8.13721 8.76786C7.91873 8.60009 7.70781 8.39099 7.55192 8.2058C7.47394 8.11317 7.41324 8.03066 7.37316 7.96602C7.35304 7.93359 7.34049 7.90942 7.33357 7.89345C7.3249 7.87343 7.33111 7.88011 7.33222 7.90445L6.83274 7.9273ZM7.55653 6.77212C7.25092 7.03026 7.06279 7.21763 6.95694 7.39317C6.8381 7.59025 6.83248 7.75667 6.83248 7.91587H7.33248C7.33248 7.77969 7.33903 7.72779 7.38512 7.65136C7.44419 7.5534 7.57375 7.41207 7.87917 7.15409L7.55653 6.77212ZM8.6929 4.47934C8.6929 5.32861 8.29722 6.14339 7.55607 6.77251L7.87964 7.1537C8.71846 6.44167 9.1929 5.49312 9.1929 4.47934H8.6929ZM8.10159 2.50959C8.46694 2.98496 8.6929 3.67875 8.6929 4.47934H9.1929C9.1929 3.59061 8.94284 2.78365 8.49803 2.2049L8.10159 2.50959ZM8.61408 2.10724H8.29981V2.60724H8.61408V2.10724ZM8.63947 2.09829C8.63198 2.10424 8.62299 2.10724 8.61408 2.10724V2.60724C8.73516 2.60724 8.85378 2.56648 8.95016 2.49005L8.63947 2.09829ZM9.51731 1.40866L8.64037 2.09758L8.94925 2.49076L9.82619 1.80185L9.51731 1.40866ZM9.54543 1.30373C9.55895 1.34868 9.54093 1.39031 9.51836 1.40784L9.82514 1.80267C10.0204 1.65095 10.0938 1.39076 10.0242 1.15963L9.54543 1.30373ZM9.49162 1.25C9.50221 1.25 9.53177 1.2588 9.54562 1.30435L10.024 1.159C9.95418 0.929117 9.7487 0.75 9.49162 0.75V1.25ZM5.56958 1.25H9.49162V0.75H5.56958V1.25ZM4.36394 1.47589C4.76605 1.32592 5.17248 1.25 5.56958 1.25V0.75C5.10844 0.75 4.64296 0.838185 4.18921 1.00741L4.36394 1.47589ZM2.09786 4.45231C2.09786 3.21719 3.01649 1.97978 4.36414 1.47581L4.18901 1.00749C2.67823 1.57246 1.59786 2.97616 1.59786 4.45231H2.09786ZM5.06062 7.62444C3.37075 7.58235 2.09786 6.24633 2.09786 4.45231H1.59786C1.59786 6.49961 3.06944 8.075 5.04817 8.12429L5.06062 7.62444ZM5.25038 8.32356C5.25038 8.19714 5.26594 8.06647 5.29771 7.93177L4.81108 7.81696C4.77104 7.98666 4.75038 8.15588 4.75038 8.32356H5.25038ZM5.43326 9.05445C5.30935 8.81878 5.25038 8.57837 5.25038 8.32356H4.75038C4.75038 8.66082 4.82971 8.98093 4.9907 9.28713L5.43326 9.05445ZM5.16153 9.42079H5.21198V8.92079H5.16153V9.42079ZM1.46506 11.5846C2.01724 10.3089 3.49263 9.42079 5.16153 9.42079V8.92079C3.33335 8.92079 1.65236 9.89317 1.0062 11.386L1.46506 11.5846ZM1.25 12.5687C1.25 12.2468 1.32114 11.9166 1.465 11.5847L1.00626 11.3859C0.837922 11.7742 0.75 12.1718 0.75 12.5687H1.25ZM1.4675 13.4562C1.32284 13.1746 1.25 12.8774 1.25 12.5687H0.75C0.75 12.9589 0.842753 13.3343 1.02276 13.6846L1.4675 13.4562ZM3.58941 14.9256C2.53746 14.6376 1.80115 14.1033 1.46733 13.4558L1.02292 13.685C1.44229 14.4984 2.32335 15.0974 3.45737 15.4078L3.58941 14.9256ZM5.32326 15.15C4.71455 15.15 4.13057 15.0737 3.5894 14.9256L3.45737 15.4078C4.0445 15.5686 4.6731 15.65 5.32326 15.65V15.15ZM6.85186 14.9259C6.37945 15.0741 5.86563 15.15 5.32326 15.15V15.65C5.91216 15.65 6.47679 15.5676 7.0015 15.403L6.85186 14.9259ZM9.23627 12.0021C9.23627 13.3061 8.32135 14.4633 6.8516 14.926L7.00176 15.4029C8.64092 14.8868 9.73627 13.5625 9.73627 12.0021H9.23627ZM7.83278 9.16451C8.36018 9.56906 8.70509 9.95667 8.92151 10.3942C9.13789 10.8316 9.23613 11.3397 9.23627 12.0021L9.73627 12.002C9.73612 11.2901 9.63049 10.6997 9.36967 10.1725C9.10889 9.6453 8.70328 9.20209 8.1371 8.76778L7.83278 9.16451ZM5.53681 9.98535C4.81653 9.98535 4.13708 10.2213 3.63307 10.5986C3.1314 10.9742 2.78034 11.5102 2.78034 12.1119H3.28034C3.28034 11.7139 3.51495 11.3116 3.93273 10.9989C4.34817 10.6878 4.92195 10.4854 5.53681 10.4854V9.98535ZM5.57272 9.98535H5.53681V10.4854H5.57272V9.98535ZM6.49263 10.1371C6.19997 10.0398 5.89097 9.98956 5.57604 9.98537L5.5694 10.4853C5.83553 10.4889 6.09336 10.5313 6.33487 10.6116L6.49263 10.1371ZM6.80989 10.357C6.7303 10.2982 6.64823 10.2375 6.56342 10.1741L6.26408 10.5746C6.35011 10.6389 6.43322 10.7003 6.51266 10.7591L6.80989 10.357ZM6.82738 10.3699L6.80989 10.357L6.51266 10.7591L6.53015 10.772L6.82738 10.3699ZM6.82919 10.3713L6.82731 10.3699L6.53022 10.772L6.5321 10.7734L6.82919 10.3713ZM8.0629 11.7562C7.9922 11.4552 7.83013 11.2195 7.61555 11.0056C7.4063 10.7969 7.133 10.5957 6.8292 10.3713L6.53209 10.7734C6.84569 11.0051 7.08507 11.1827 7.26251 11.3596C7.43464 11.5313 7.5333 11.688 7.57615 11.8705L8.0629 11.7562ZM8.10959 12.1753C8.10959 12.0385 8.09414 11.8987 8.06374 11.7598L7.57531 11.8668C7.59833 11.9719 7.60959 12.0759 7.60959 12.1753H8.10959ZM5.31394 14.3013C6.18272 14.3013 6.88167 14.1403 7.36863 13.7814C7.86949 13.4123 8.10959 12.8615 8.10959 12.1753H7.60959C7.60959 12.7341 7.4216 13.1213 7.07201 13.3789C6.70852 13.6468 6.13464 13.8013 5.31394 13.8013V14.3013ZM2.78034 12.1119C2.78034 13.3747 3.93524 14.3013 5.31394 14.3013V13.8013C4.13157 13.8013 3.28034 13.025 3.28034 12.1119H2.78034ZM4.44128 2.82286C4.6067 2.61799 4.81079 2.521 5.03557 2.521V2.021C4.64663 2.021 4.30408 2.19687 4.05226 2.50876L4.44128 2.82286ZM4.12073 4.37076C4.04053 3.70843 4.17487 3.15234 4.44117 2.823L4.05236 2.50862C3.6729 2.97792 3.53422 3.68641 3.62436 4.43087L4.12073 4.37076ZM5.72883 6.52467C5.40735 6.51395 5.04498 6.29684 4.73224 5.89525C4.42393 5.49933 4.19127 4.95598 4.12075 4.3709L3.62434 4.43073C3.70547 5.10378 3.97227 5.73313 4.33775 6.20246C4.69883 6.66612 5.1846 7.0068 5.71217 7.0244L5.72883 6.52467ZM5.73445 6.52454H5.7205V7.02454H5.73445V6.52454ZM5.73504 6.52454H5.73445V7.02454H5.73504V6.52454ZM6.33856 6.22199C6.17288 6.4271 5.97281 6.52454 5.73504 6.52454V7.02454C6.13591 7.02454 6.47476 6.8491 6.72752 6.53616L6.33856 6.22199ZM6.67096 4.6366C6.75161 5.2999 6.60949 5.88717 6.3387 6.22182L6.72738 6.53634C7.11066 6.06269 7.25818 5.32361 7.1673 4.57625L6.67096 4.6366ZM5.06231 2.52151C5.39661 2.53218 5.75877 2.74349 6.06659 3.13221C6.37129 3.51699 6.59992 4.0499 6.67094 4.63648L7.16732 4.57638C7.08581 3.90321 6.82344 3.28256 6.45857 2.8218C6.09681 2.36498 5.61082 2.03877 5.07826 2.02177L5.06231 2.52151ZM5.03093 2.52095L5.06566 2.5216L5.07492 2.02168L5.0402 2.02104L5.03093 2.52095Z" fill="black"/>
</svg>
