<svg width="17" height="15" viewBox="0 0 17 15" fill="none" xmlns="http://www.w3.org/2000/svg">
<path d="M17 1.68216C16.375 1.96791 15.7025 2.16065 14.9968 2.24691C15.7173 1.8032 16.2698 1.10038 16.5303 0.261962C15.8564 0.673362 15.1103 0.971884 14.3156 1.13304C13.6796 0.435893 12.773 0 11.7699 0C9.84394 0 8.28242 1.6062 8.28242 3.5876C8.28242 3.86837 8.31314 4.14205 8.37284 4.40507C5.47411 4.25528 2.9039 2.82727 1.18365 0.656679C0.883422 1.18628 0.711569 1.80249 0.711569 2.46059C0.711569 3.70509 1.3272 4.80334 2.26308 5.44653C1.69161 5.42772 1.15362 5.26621 0.683271 4.9975C0.682926 5.01241 0.682926 5.02767 0.682926 5.04294C0.682926 6.78083 1.88521 8.23049 3.48089 8.56061C3.18825 8.64225 2.88009 8.68626 2.56192 8.68626C2.33693 8.68626 2.11849 8.6639 1.90557 8.62166C2.34969 10.0468 3.63756 11.0844 5.16353 11.1131C3.96988 12.0754 2.46633 12.6491 0.832004 12.6491C0.550758 12.6491 0.272963 12.632 0 12.5986C1.54392 13.617 3.37702 14.2105 5.34643 14.2105C11.7619 14.2105 15.2697 8.74412 15.2697 4.00325C15.2697 3.84778 15.2666 3.69266 15.2601 3.53861C15.9413 3.03386 16.5328 2.40167 17 1.68216Z" fill="black"/>
</svg>
