<svg width="16" height="11" viewBox="0 0 16 11" fill="none" xmlns="http://www.w3.org/2000/svg">
<path fill-rule="evenodd" clip-rule="evenodd" d="M15.1333 1.46667C15.2 1.53333 15.2 1.6 15.2 1.66667C15.3333 2.33333 15.4667 3.73333 15.4667 5.33333C15.4667 6.64031 15.3332 7.81383 15.248 8.56321C15.2289 8.73122 15.2122 8.87791 15.2 9C15.1333 9.06667 15.1333 9.13333 15.1333 9.2V9.26667C14.9333 9.86666 14.4 10.2667 13.7333 10.2667H13.8667C13.8667 10.2667 11.2 10.6667 7.73333 10.6667C4.2 10.6667 1.6 10.2667 1.6 10.2667H1.73333C1.06667 10.2667 0.533333 9.86666 0.333333 9.26667V9.2C0.266667 9.13333 0.266667 9.06667 0.266667 9C0.254457 8.87791 0.237776 8.73122 0.21867 8.56321C0.133451 7.81383 0 6.64031 0 5.33333C0 4.02636 0.133452 2.85283 0.21867 2.10346C0.237776 1.93545 0.254457 1.78876 0.266667 1.66667C0.333333 1.6 0.333333 1.53333 0.333333 1.46667V1.4C0.533333 0.799999 1.06667 0.400002 1.73333 0.400002H1.6C1.6 0.400002 4.26667 0 7.73333 0C11.2667 0 13.8667 0.400002 13.8667 0.400002H13.7333C14.4 0.400002 14.9333 0.799999 15.1333 1.4V1.46667ZM6.86667 7.93333L10 5.66667C10.1333 5.6 10.2 5.46667 10.1333 5.33334C10.1333 5.2 10.0667 5.06667 10 5L6.86667 2.73333C6.73333 2.66667 6.6 2.66667 6.46667 2.73333C6.33333 2.8 6.26667 2.93333 6.26667 3.06667V7.6C6.26667 7.73333 6.33333 7.86667 6.46667 7.93333C6.53333 8 6.6 8 6.66667 8C6.73333 8 6.8 8 6.86667 7.93333Z" fill="black"/>
</svg>
